<svg width="26" height="16" viewBox="0 0 26 16" fill="none" xmlns="http://www.w3.org/2000/svg">
<path d="M8.63641 15.182C9.8414 15.182 10.8182 14.2052 10.8182 13.0002C10.8182 11.7952 9.8414 10.8184 8.63641 10.8184C7.43142 10.8184 6.45459 11.7952 6.45459 13.0002C6.45459 14.2052 7.43142 15.182 8.63641 15.182Z" stroke="#666666" stroke-miterlimit="1.5" stroke-linecap="round" stroke-linejoin="round"/>
<path d="M19.5453 15.182C20.7504 15.182 21.7272 14.2052 21.7272 13.0002C21.7272 11.7952 20.7504 10.8184 19.5453 10.8184C18.3403 10.8184 17.3635 11.7952 17.3635 13.0002C17.3635 14.2052 18.3403 15.182 19.5453 15.182Z" stroke="#666666" stroke-miterlimit="1.5" stroke-linecap="round" stroke-linejoin="round"/>
<path d="M10.8727 13H16.2727V1.65455C16.2727 1.29305 15.9797 1 15.6182 1H1" stroke="#666666" stroke-linecap="round"/>
<path d="M6.07255 13H3.83619C3.47469 13 3.18164 12.707 3.18164 12.3455V7" stroke="#666666" stroke-linecap="round"/>
<path d="M2.09082 4.27271H6.45446" stroke="#666666" stroke-linecap="round" stroke-linejoin="round"/>
<path d="M16.2727 4.27271H22.3928C22.6515 4.27271 22.8859 4.42504 22.991 4.66142L24.9436 9.05482C24.9808 9.1386 25 9.22915 25 9.32068V12.3454C25 12.707 24.707 13 24.3454 13H22.2727" stroke="#666666" stroke-linecap="round"/>
<path d="M16.2727 13H17.3636" stroke="#666666" stroke-linecap="round"/>
</svg>
