<svg width="20" height="20" viewBox="0 0 20 20" fill="none" xmlns="http://www.w3.org/2000/svg">
<path d="M6.88494 15V4.81818H10.902C11.6742 4.81818 12.3321 4.96567 12.8757 5.26065C13.4193 5.55232 13.8336 5.95833 14.1186 6.47869C14.407 6.99574 14.5511 7.59233 14.5511 8.26847C14.5511 8.9446 14.4053 9.54119 14.1136 10.0582C13.822 10.5753 13.3994 10.978 12.8459 11.2663C12.2957 11.5547 11.6295 11.6989 10.8473 11.6989H8.28693V9.97372H10.4993C10.9136 9.97372 11.255 9.90246 11.5234 9.75994C11.7952 9.61411 11.9974 9.41359 12.13 9.15838C12.2659 8.89986 12.3338 8.60322 12.3338 8.26847C12.3338 7.9304 12.2659 7.63542 12.13 7.38352C11.9974 7.12831 11.7952 6.93111 11.5234 6.7919C11.2517 6.64938 10.907 6.57812 10.4893 6.57812H9.03764V15H6.88494Z" fill="#666666"/>
<circle cx="10" cy="10" r="9.5" stroke="#666666"/>
</svg>
