<svg width="32" height="32" viewBox="0 0 32 32" fill="none" xmlns="http://www.w3.org/2000/svg">
<path d="M23.5 16.75C23.9142 16.75 24.25 16.4142 24.25 16C24.25 15.5858 23.9142 15.25 23.5 15.25C23.0858 15.25 22.75 15.5858 22.75 16C22.75 16.4142 23.0858 16.75 23.5 16.75Z" fill="#372E46" stroke="#372E46" stroke-width="2" stroke-linecap="round" stroke-linejoin="round"/>
<path d="M16 16.75C16.4142 16.75 16.75 16.4142 16.75 16C16.75 15.5858 16.4142 15.25 16 15.25C15.5858 15.25 15.25 15.5858 15.25 16C15.25 16.4142 15.5858 16.75 16 16.75Z" fill="#372E46" stroke="#372E46" stroke-width="2" stroke-linecap="round" stroke-linejoin="round"/>
<path d="M8.5 16.75C8.91421 16.75 9.25 16.4142 9.25 16C9.25 15.5858 8.91421 15.25 8.5 15.25C8.08579 15.25 7.75 15.5858 7.75 16C7.75 16.4142 8.08579 16.75 8.5 16.75Z" fill="#372E46" stroke="#372E46" stroke-width="2" stroke-linecap="round" stroke-linejoin="round"/>
<path d="M16 31C24.2842 31 31 24.2842 31 16C31 7.71572 24.2842 1 16 1C7.71572 1 1 7.71572 1 16C1 18.7321 1.73046 21.2936 3.00673 23.5L1.75 30.25L8.5 28.9933C10.7063 30.2695 13.2679 31 16 31Z" stroke="#372E46" stroke-width="2" stroke-linecap="round" stroke-linejoin="round"/>
</svg>
