<svg width="26" height="26" viewBox="0 0 26 26" fill="none" xmlns="http://www.w3.org/2000/svg">
<path d="M15.9379 13.0007L24.8962 4.06321C25.2885 3.67091 25.5089 3.13884 25.5089 2.58405C25.5089 2.02925 25.2885 1.49718 24.8962 1.10488C24.5039 0.712579 23.9718 0.492187 23.417 0.492188C22.8622 0.492188 22.3302 0.712579 21.9379 1.10488L13.0004 10.0632L4.06286 1.10488C3.67056 0.712579 3.13849 0.492187 2.58369 0.492188C2.0289 0.492188 1.49683 0.712579 1.10453 1.10488C0.712228 1.49718 0.491837 2.02925 0.491837 2.58405C0.491837 3.13884 0.712228 3.67091 1.10453 4.06321L10.0629 13.0007L1.10453 21.9382C0.90926 22.1319 0.754273 22.3623 0.648504 22.6162C0.542736 22.87 0.488281 23.1424 0.488281 23.4174C0.488281 23.6924 0.542736 23.9647 0.648504 24.2186C0.754273 24.4725 0.90926 24.7029 1.10453 24.8965C1.2982 25.0918 1.52862 25.2468 1.78249 25.3526C2.03637 25.4583 2.30867 25.5128 2.58369 25.5128C2.85872 25.5128 3.13102 25.4583 3.3849 25.3526C3.63877 25.2468 3.86919 25.0918 4.06286 24.8965L13.0004 15.9382L21.9379 24.8965C22.1315 25.0918 22.362 25.2468 22.6158 25.3526C22.8697 25.4583 23.142 25.5128 23.417 25.5128C23.6921 25.5128 23.9644 25.4583 24.2182 25.3526C24.4721 25.2468 24.7025 25.0918 24.8962 24.8965C25.0915 24.7029 25.2465 24.4725 25.3522 24.2186C25.458 23.9647 25.5124 23.6924 25.5124 23.4174C25.5124 23.1424 25.458 22.87 25.3522 22.6162C25.2465 22.3623 25.0915 22.1319 24.8962 21.9382L15.9379 13.0007Z" fill="#231F20"/>
</svg>
