<svg width="20" height="20" viewBox="0 0 20 20" fill="none" xmlns="http://www.w3.org/2000/svg">
<path d="M16.7499 19.0003C17.4955 19.0003 18.0999 18.3959 18.0999 17.6503C18.0999 16.9047 17.4955 16.3003 16.7499 16.3003C16.0043 16.3003 15.3999 16.9047 15.3999 17.6503C15.3999 18.3959 16.0043 19.0003 16.7499 19.0003Z" stroke="#797979" stroke-linecap="round" stroke-linejoin="round"/>
<path d="M7.74991 19.0003C8.49547 19.0003 9.09991 18.3959 9.09991 17.6503C9.09991 16.9047 8.49547 16.3003 7.74991 16.3003C7.00432 16.3003 6.3999 16.9047 6.3999 17.6503C6.3999 18.3959 7.00432 19.0003 7.74991 19.0003Z" stroke="#797979" stroke-linecap="round" stroke-linejoin="round"/>
<path d="M3.70001 2.80001H19.0001L17.2001 12.7H5.50002L3.70001 2.80001ZM3.70001 2.80001C3.55001 2.2 2.80001 1 1 1" stroke="#797979" stroke-linecap="round" stroke-linejoin="round"/>
<path d="M17.2003 12.7002H5.50021H3.9079C2.30201 12.7002 1.4502 13.4033 1.4502 14.5002C1.4502 15.5971 2.30201 16.3002 3.9079 16.3002H16.7503" stroke="#797979" stroke-linecap="round" stroke-linejoin="round"/>
</svg>
