<svg width="37" height="35" viewBox="0 0 37 35" fill="none" xmlns="http://www.w3.org/2000/svg">
<path d="M32.1356 14.8381C32.1356 7.19552 25.9402 1 18.2976 1C10.655 1 4.45947 7.19552 4.45947 14.8381" stroke="black" stroke-width="2" stroke-linecap="round" stroke-linejoin="round"/>
<path d="M1 22.5154V19.2689C1 17.6814 2.08039 16.2977 3.62047 15.9127L6.62947 15.1604C7.28451 14.9966 7.91904 15.492 7.91904 16.1673V25.617C7.91904 26.2923 7.28451 26.7877 6.62947 26.6239L3.62047 25.8716C2.08039 25.4866 1 24.1029 1 22.5154Z" stroke="black" stroke-width="2"/>
<path d="M35.5953 22.5154V19.2689C35.5953 17.6814 34.5149 16.2977 32.9749 15.9127L29.9658 15.1604C29.3107 14.9966 28.6763 15.492 28.6763 16.1673V25.617C28.6763 26.2923 29.3107 26.7877 29.9658 26.6239L32.9749 25.8716C34.5149 25.4866 35.5953 24.1029 35.5953 22.5154Z" stroke="black" stroke-width="2"/>
<path d="M32.1358 26.9463V27.8112C32.1358 29.7219 30.5869 31.2707 28.6762 31.2707H22.6221" stroke="black" stroke-width="2"/>
<path d="M20.8923 33.8651H15.703C14.2701 33.8651 13.1084 32.7034 13.1084 31.2704C13.1084 29.8375 14.2701 28.6758 15.703 28.6758H20.8923C22.3253 28.6758 23.487 29.8375 23.487 31.2704C23.487 32.7034 22.3253 33.8651 20.8923 33.8651Z" stroke="black" stroke-width="2"/>
</svg>
